<svg xmlns="http://www.w3.org/2000/svg" width="144" height="103" fill="none"><path fill="url(#a)" d="M46.06.24a2.962 2.962 0 0 1 2.222-.046c.643.24 1.142.665 1.526 1.088l.143.165c.71.84 1.296 1.98 1.81 3.264.559 1.397 1.08 3.088 1.578 5.002.996 3.829 1.938 8.676 2.929 14.095 1.99 10.873 4.194 24.12 7.482 36.57 1.54 5.832 3.306 11.439 5.374 16.509.923-1.177 1.825-2.37 2.705-3.571 2.394-3.269 4.61-6.56 6.7-9.692 2.083-3.122 4.052-6.104 5.926-8.707 1.87-2.596 3.694-4.887 5.508-6.612 1.783-1.696 3.751-3.037 5.948-3.403 2.528-.421 4.743.823 6.535 2.473 1.834 1.688 3.61 4.14 5.347 6.976 3.474 5.674 7.068 13.372 10.767 20.702 3.741 7.415 7.59 14.457 11.639 19.118 2.027 2.332 3.991 3.934 5.875 4.733 1.79.759 3.541.816 5.431-.018l.08-.033c.833-.322 1.817-.019 2.231.702.427.743.085 1.65-.763 2.024l-.273.116c-2.819 1.16-5.602 1.026-8.205-.077-2.592-1.099-4.951-3.131-7.114-5.621-4.33-4.984-8.325-12.345-12.049-19.725-3.767-7.465-7.261-14.956-10.652-20.496-1.697-2.771-3.298-4.934-4.806-6.322-1.548-1.425-2.64-1.717-3.4-1.59-1.093.182-2.431.935-4.06 2.483-1.597 1.52-3.288 3.624-5.128 6.179-1.834 2.548-3.767 5.473-5.866 8.62-2.091 3.134-4.339 6.472-6.775 9.798a130.546 130.546 0 0 1-4.125 5.352c2.015 4.38 4.295 8.256 6.898 11.392 3.042 3.664 6.444 6.219 10.27 7.45 3.788 1.22 8.189 1.204 13.402-.586l.084-.027c.863-.253 1.811.13 2.147.88.346.775-.09 1.65-.975 1.954l-.548.183c-5.645 1.836-10.741 1.893-15.298.426-4.667-1.502-8.572-4.54-11.866-8.507-2.442-2.942-4.593-6.45-6.5-10.343-8.777 9.991-20.017 18.453-35.118 18.619l-.452.003c-.95 0-1.721-.675-1.721-1.507 0-.833.77-1.508 1.72-1.508l.406-.002c14.228-.157 24.941-8.532 33.659-18.864-2.513-5.77-4.57-12.207-6.311-18.802-3.321-12.577-5.55-25.962-7.527-36.772-.993-5.424-1.919-10.18-2.887-13.9-.484-1.86-.97-3.43-1.47-4.676-.435-1.088-.847-1.846-1.215-2.328a6.417 6.417 0 0 0-.305.594c-.814 1.781-1.593 4.988-2.422 9.349-1.622 8.536-3.389 21.266-6.09 34.112-2.71 12.896-6.424 26.263-12.079 36.436-5.532 9.953-13.226 17.356-24.158 17.585l-.523.006C.77 101.462 0 100.788 0 99.955c0-.832.77-1.507 1.72-1.507l.427-.005c8.926-.185 15.772-6.195 21.161-15.89 5.44-9.788 9.088-22.817 11.789-35.663 2.71-12.896 4.405-25.254 6.08-34.061.819-4.312 1.646-7.841 2.62-9.974.25-.545.532-1.054.862-1.482.32-.413.77-.862 1.401-1.133Z"/><defs><radialGradient id="a" cx="0" cy="0" r="1" gradientTransform="rotate(84.702 2.752 64.555) scale(58.0048 80.9224)" gradientUnits="userSpaceOnUse"><stop stop-color="#E75199"/><stop offset="1" stop-color="#F5E1EE"/></radialGradient></defs></svg>