<svg xmlns="http://www.w3.org/2000/svg" width="176" height="101" fill="none"><path fill="url(#a)" d="M109.588 100.5c-.155 0-.309-.006-.464-.015a8.627 8.627 0 0 1-7.661-7.927L88.506 8.64a2.007 2.007 0 0 0-2.047-1.81 1.961 1.961 0 0 0-2.155 1.68L68.268 82.137a6.321 6.321 0 0 1-5.78 4.993 6.39 6.39 0 0 1-6.411-4.156l-9.168-24.962a2.185 2.185 0 0 0-4.06-.1l-3.339 7.853a11.18 11.18 0 0 1-8.612 7.112 9.968 9.968 0 0 1-9.224-4.132l-3.631-4.703a4.474 4.474 0 0 0-3.52-1.729H3.162a3.162 3.162 0 0 1 0-6.324h11.36a10.844 10.844 0 0 1 8.526 4.187l3.632 4.703a3.692 3.692 0 0 0 3.412 1.723 4.992 4.992 0 0 0 3.6-3.313l3.339-7.853a8.507 8.507 0 0 1 15.813.395l9.168 24.963L78.125 7.165A8.257 8.257 0 0 1 86.65.511a8.364 8.364 0 0 1 8.106 7.164l12.957 83.92c.266 1.713 1.115 2.538 1.791 2.578.751-.025 1.393-.741 1.742-2.001l11.138-39.778a9.393 9.393 0 0 1 9.112-6.75 9.13 9.13 0 0 1 8.795 7.167l3.659 15.9c.485 2.105 1.658 3.035 2.514 3.19 1.118.218 1.905-.748 2.288-1.329l7.689-11.62a10.738 10.738 0 0 1 8.983-4.826h7.414a3.162 3.162 0 1 1 0 6.324h-7.414a4.432 4.432 0 0 0-3.709 1.992l-7.689 11.62a8.568 8.568 0 0 1-8.689 4.063 9.91 9.91 0 0 1-7.55-7.995l-3.66-15.9a2.917 2.917 0 0 0-5.653-.132l-11.138 39.778a8.247 8.247 0 0 1-7.748 6.624Z"/><defs><radialGradient id="a" cx="0" cy="0" r="1" gradientTransform="matrix(0 50 -88 0 88 50.5)" gradientUnits="userSpaceOnUse"><stop stop-color="#F56705"/><stop offset="1" stop-color="#FEB693"/></radialGradient></defs></svg>
